<svg xmlns="http://www.w3.org/2000/svg" xmlns:xlink="http://www.w3.org/1999/xlink" viewBox="0 0 1365.92 733.84"><defs><style>.cls-1{fill:url(#Naamloos_verloop_6);}</style><linearGradient id="Naamloos_verloop_6" x1="982.91" y1="-12.63" x2="154.67" y2="1035.32" gradientUnits="userSpaceOnUse"><stop offset="0" stop-color="#1b1464"/><stop offset="1" stop-color="blue"/></linearGradient></defs><title>bg</title><g id="Laag_2" data-name="Laag 2"><g id="Laag_1-2" data-name="Laag 1"><path class="cls-1" d="M173.66,682.37a317.18,317.18,0,0,1,143.31,34,319.18,319.18,0,0,1,269.27-8.11,319.33,319.33,0,0,1,254.67,1.2A319.5,319.5,0,0,1,1081,702.39a319.08,319.08,0,0,1,284.94,31.4L1365,349s-35-163-295-163S682,0,682,0H0V733.84A317.08,317.08,0,0,1,173.66,682.37Z"/></g></g></svg>